<svg version="1.1" id="Layer_1" xmlns="http://www.w3.org/2000/svg" xmlns:xlink="http://www.w3.org/1999/xlink" x="0px" y="0px"
	 width="100%" viewBox="0 0 3091 270" enable-background="new 0 0 3091 270" xml:space="preserve">
<path fill="#000000" opacity="1.000000" stroke="none" 
	d="
M1.000001,171.000000 
	C1.000000,114.339958 1.000000,57.679913 1.000000,1.059390 
	C1031.333374,1.059390 2061.666748,1.059390 3092.000000,1.059390 
	C3092.000000,60.111916 3092.000000,119.105057 3091.816895,178.907593 
	C3091.089111,177.992462 3090.510986,176.277618 3090.005615,174.541595 
	C3088.106934,168.017029 3087.615479,160.587311 3084.074951,155.134048 
	C3075.275879,141.581207 3061.691650,135.508972 3045.692139,137.193512 
	C3032.292236,138.604370 3025.531250,147.828476 3028.183838,160.952011 
	C3030.025879,170.064224 3031.141846,178.977997 3028.037354,188.042526 
	C3025.141357,196.499390 3019.574951,202.846466 3011.471191,205.775360 
	C3002.391113,209.057007 2992.781250,210.133270 2982.956543,208.067795 
	C2967.996582,204.922867 2956.997314,196.745270 2950.323486,183.114059 
	C2949.489746,181.411179 2950.583008,177.519073 2952.122803,176.165497 
	C2955.113281,173.537033 2958.840332,171.054413 2962.645508,170.180954 
	C2972.309570,167.962555 2982.129395,166.095963 2991.989014,165.133484 
	C3006.782715,163.689377 3014.648926,154.453674 3011.756104,141.973587 
	C3008.055420,126.006882 2991.553955,114.403969 2977.199219,114.923935 
	C2966.547852,115.309738 2955.871338,114.973114 2945.206055,115.018867 
	C2942.721436,115.029526 2941.294189,114.727417 2941.732422,111.485146 
	C2942.468994,106.040085 2942.487793,100.500626 2943.110352,95.035324 
	C2943.233887,93.953629 2944.646973,92.261894 2945.589600,92.173309 
	C2948.352295,91.913681 2951.324951,91.802208 2953.954834,92.549164 
	C2972.945801,97.942558 2989.665039,108.043480 3005.998047,118.693420 
	C3014.407715,124.176956 3022.876953,128.175064 3033.176758,128.096436 
	C3042.006104,128.029037 3048.427979,123.949142 3052.506104,116.803726 
	C3056.337646,110.090652 3053.622314,103.257965 3050.420654,96.841057 
	C3045.872314,87.724930 3041.312256,78.614044 3036.840088,69.460442 
	C3034.041016,63.730980 3032.398193,57.101780 3028.473145,52.325729 
	C3019.869141,41.857758 3008.349121,36.433849 2994.412598,36.979149 
	C2985.105713,37.343304 2977.745361,42.509476 2975.253906,50.773438 
	C2972.631104,49.891132 2970.036133,48.933254 2967.391113,48.142418 
	C2950.811768,43.185486 2934.134766,39.418327 2916.763672,43.998283 
	C2902.668213,47.714668 2892.220459,55.541557 2886.753906,69.525574 
	C2882.981934,79.174973 2881.987061,89.146683 2881.968506,99.345383 
	C2881.965332,101.114075 2881.552246,102.882027 2881.204102,105.631004 
	C2879.034912,103.016312 2877.458496,101.540070 2876.391602,99.758636 
	C2870.986328,90.735229 2864.871582,81.999908 2865.871094,70.560257 
	C2866.082031,68.146210 2865.047852,65.420273 2863.967773,63.130222 
	C2858.093262,50.674778 2847.771240,44.252033 2834.519531,42.005310 
	C2825.331299,40.447495 2817.203857,42.272724 2810.245850,48.943581 
	C2809.217041,49.929958 2806.179199,49.691601 2804.501221,48.990181 
	C2792.597900,44.014774 2780.034668,41.895824 2767.359863,41.151550 
	C2753.195801,40.319851 2739.634521,42.857544 2726.619873,49.472698 
	C2715.284424,55.234451 2706.695801,63.408859 2699.831299,73.669205 
	C2688.988281,89.875191 2688.366455,108.229622 2689.297852,128.410431 
	C2686.086182,123.702911 2683.452637,120.149498 2681.137939,116.399139 
	C2668.181885,95.405983 2654.377686,75.181801 2636.193604,58.108864 
	C2623.333740,46.034855 2608.584961,42.158108 2591.689697,44.232544 
	C2590.067871,44.431702 2588.536133,45.478546 2586.994629,46.200741 
	C2575.345947,51.658451 2569.614014,61.954338 2565.000244,73.156158 
	C2557.437744,91.517929 2553.384277,110.850029 2549.782715,130.239014 
	C2546.269775,149.149185 2543.550537,168.206757 2540.253174,188.622238 
	C2538.250977,181.993500 2536.764160,176.483353 2534.909424,171.100067 
	C2533.133057,165.943420 2532.060791,160.028412 2528.769775,156.010452 
	C2520.413574,145.808456 2508.917725,140.737534 2495.699463,142.191162 
	C2486.181641,143.237793 2478.185791,147.976395 2475.076904,157.945297 
	C2472.298828,166.853333 2476.089600,175.266541 2478.104736,183.668655 
	C2479.587891,189.852692 2482.370605,195.725128 2484.516602,201.579636 
	C2469.310303,202.564713 2454.386230,203.531494 2439.200928,204.515213 
	C2438.826660,202.804123 2438.244385,200.937775 2438.030029,199.030151 
	C2436.950439,189.416199 2436.464844,179.706161 2434.834717,170.190201 
	C2432.281738,155.287048 2429.033936,140.500931 2425.969482,125.688232 
	C2424.359375,117.905624 2423.005371,110.019142 2420.657715,102.451942 
	C2417.167725,91.201851 2413.170654,80.086624 2408.855957,69.123909 
	C2406.457520,63.029736 2404.047607,56.377769 2399.757324,51.710148 
	C2391.416504,42.635895 2380.308838,38.316917 2367.798340,40.135105 
	C2358.994385,41.414612 2351.643311,45.544182 2348.705566,54.816261 
	C2347.899170,57.361519 2347.561768,60.055458 2346.944092,62.990677 
	C2342.960693,60.660927 2339.537354,58.443211 2335.928955,56.584408 
	C2317.541504,47.112320 2297.677734,43.638050 2277.292236,43.117229 
	C2265.211670,42.808590 2253.089111,43.443508 2241.008789,44.087849 
	C2234.334229,44.443859 2227.635254,45.327873 2221.073486,46.617191 
	C2206.511475,49.478500 2192.289795,54.496426 2177.094971,53.006351 
	C2169.736816,52.284756 2162.368164,51.673622 2155.011719,50.934490 
	C2148.975342,50.327965 2142.878906,49.983624 2136.934082,48.862240 
	C2121.237549,45.901428 2105.528320,43.679054 2089.473389,43.926701 
	C2070.017822,44.226810 2050.507568,43.189648 2031.348511,47.919849 
	C2029.875366,48.283539 2027.538574,47.807735 2026.487915,46.799889 
	C2018.642090,39.273140 2009.189575,36.085579 1998.651001,37.142815 
	C1990.135132,37.997139 1982.211426,40.829372 1978.203979,49.994579 
	C1977.302856,49.994579 1976.149414,50.041119 1975.002319,49.976418 
	C1974.357178,49.940022 1973.683960,49.813580 1973.088501,49.568993 
	C1957.836304,43.304195 1942.153320,40.355301 1925.640991,42.969536 
	C1916.503906,44.416122 1908.070312,47.520622 1900.586548,52.949783 
	C1890.354370,60.372776 1882.731689,69.906815 1879.482788,82.225655 
	C1876.553223,93.334396 1873.578613,104.561653 1872.262695,115.926399 
	C1871.106445,125.913269 1874.505249,135.525848 1879.876099,143.601349 
	C1873.044678,151.029541 1868.171509,158.862473 1867.585815,169.607758 
	C1853.936035,158.588928 1840.703369,147.906738 1827.420288,137.183807 
	C1827.696167,136.891541 1828.176270,136.173950 1828.836182,135.715607 
	C1837.465698,129.723785 1843.368530,121.265564 1848.585327,112.513237 
	C1853.299316,104.604652 1854.701172,95.647537 1855.370972,86.282112 
	C1855.972290,77.873619 1853.647827,71.220291 1848.645508,65.281410 
	C1841.508545,56.807983 1831.824585,54.439106 1821.092285,54.965508 
	C1808.367065,55.589649 1795.461304,66.313705 1795.834961,80.426384 
	C1795.923218,83.754005 1794.649048,87.570007 1792.835327,90.418900 
	C1784.068848,104.188690 1769.332397,109.412514 1754.492310,116.591888 
	C1758.685669,103.441223 1761.189331,90.995506 1770.051147,80.865623 
	C1775.450073,74.694191 1777.283081,66.354263 1773.704590,58.910297 
	C1765.611450,42.075153 1749.931274,37.751465 1733.022705,42.535751 
	C1719.776489,46.283772 1706.775146,50.890129 1693.622070,54.976654 
	C1684.321777,57.866135 1675.571045,61.308395 1672.387329,72.229492 
	C1670.859131,71.301613 1669.308960,70.681740 1668.172241,69.619331 
	C1658.697998,60.765667 1647.654541,54.615074 1635.355957,50.773342 
	C1624.301270,47.320152 1613.186035,44.301575 1601.425293,43.848900 
	C1589.782593,43.400768 1578.154419,41.001942 1566.559937,41.258629 
	C1551.157959,41.599602 1535.594360,42.590435 1520.475830,45.355133 
	C1507.582153,47.712955 1498.127930,54.033310 1496.657471,70.040298 
	C1492.875488,65.246277 1489.856323,60.353573 1485.825073,56.526703 
	C1476.909790,48.063255 1466.815063,43.222046 1453.633057,43.631828 
	C1441.692993,44.003010 1431.867310,48.414227 1425.275391,56.806992 
	C1414.862427,70.064583 1406.330200,84.835678 1397.455811,99.245697 
	C1394.327759,104.324883 1392.446167,110.189186 1390.147095,115.757668 
	C1385.648926,126.652321 1381.304932,137.610687 1376.788940,148.497833 
	C1375.619263,151.317596 1374.049561,153.971405 1372.477295,156.506622 
	C1372.164917,156.184036 1372.038696,156.056244 1371.951538,155.470078 
	C1371.661255,150.245850 1371.306519,145.481567 1371.007202,140.713806 
	C1370.324097,129.834702 1370.210205,118.885170 1368.842285,108.093872 
	C1367.580933,98.143471 1365.732666,88.133575 1362.804321,78.559311 
	C1358.275146,63.750858 1348.206543,53.711258 1332.759033,50.534996 
	C1317.957764,47.491600 1304.928467,52.993320 1293.302612,61.546265 
	C1279.926636,71.386795 1269.772827,84.437668 1259.862915,97.590172 
	C1255.902222,102.846870 1252.324463,108.392097 1248.582031,113.791916 
	C1242.995239,104.422813 1237.922607,94.903053 1231.879639,86.045410 
	C1224.794922,75.660942 1217.671265,65.094124 1209.097046,55.988293 
	C1198.655029,44.898895 1185.009155,41.520264 1169.875366,44.929398 
	C1155.160645,48.244179 1147.317505,58.703568 1143.691284,72.010704 
	C1139.279297,88.200974 1135.738403,104.718918 1133.222290,121.307693 
	C1131.106079,135.260330 1130.917358,149.512482 1130.044556,163.642502 
	C1129.756348,168.308289 1130.096802,173.009338 1129.974976,177.689713 
	C1129.709106,187.894287 1128.944458,198.102158 1129.108887,208.296997 
	C1129.267944,218.168365 1130.382324,228.022171 1130.992554,237.888901 
	C1131.775391,250.550369 1140.595459,258.865417 1149.078491,260.255219 
	C1155.897461,261.372375 1163.424683,261.272003 1170.078979,259.551300 
	C1179.719849,257.058319 1186.688599,250.109985 1188.597412,240.077789 
	C1189.644531,234.574585 1188.307373,228.610703 1187.994751,222.857315 
	C1187.386963,211.673660 1186.657104,200.495819 1186.153198,189.307678 
	C1185.920044,184.131134 1185.858276,178.922653 1186.148071,173.752701 
	C1186.541992,166.721558 1187.570435,159.724258 1187.910522,152.692337 
	C1188.225342,146.183487 1187.858643,139.643753 1188.071777,133.126770 
	C1188.148315,130.789307 1189.040283,128.478500 1189.851196,124.855385 
	C1191.765015,127.582619 1193.015503,129.048538 1193.915283,130.705017 
	C1196.856934,136.120590 1199.731445,141.574753 1202.520142,147.070709 
	C1207.361816,156.612411 1213.457153,165.777115 1216.617676,175.855408 
	C1222.153442,193.508072 1237.956909,198.074203 1252.970825,195.627655 
	C1258.058838,194.798538 1263.744873,191.173080 1267.020508,187.104782 
	C1272.854614,179.858871 1277.058105,171.300583 1281.948853,163.294388 
	C1289.224976,151.383453 1296.421631,139.422745 1303.828369,127.593552 
	C1306.568237,123.217590 1309.806274,119.153503 1312.817017,114.947159 
	C1313.267090,115.132027 1313.717285,115.316895 1314.167358,115.501755 
	C1314.444824,119.529099 1314.927246,123.554695 1314.961670,127.584114 
	C1315.066895,139.916336 1315.000244,152.250015 1315.000244,164.583130 
	C1315.000244,173.432175 1315.012695,182.281235 1314.987427,191.130219 
	C1314.983276,192.615051 1314.845093,194.102036 1314.717651,195.583618 
	C1313.493774,209.809402 1312.202148,224.029770 1311.084717,238.263840 
	C1310.904907,240.555252 1311.004272,243.090393 1311.805054,245.197357 
	C1314.751465,252.950378 1320.162476,259.167908 1328.301025,260.430969 
	C1336.435669,261.693481 1345.091187,262.651459 1353.111328,258.513031 
	C1354.540527,257.775513 1356.862183,257.046356 1357.969604,257.691071 
	C1364.197510,261.316803 1370.921387,260.900116 1377.693359,261.059326 
	C1389.568726,261.338593 1399.872925,253.808502 1403.771729,242.599487 
	C1405.938843,236.369034 1408.311279,230.210022 1410.424072,224.472641 
	C1437.578003,222.217621 1463.883179,225.617767 1490.082642,230.150391 
	C1493.596802,230.758347 1496.431519,231.074341 1497.463989,236.880508 
	C1500.874390,256.056580 1513.780762,261.816528 1528.733643,261.768311 
	C1538.434448,261.736969 1547.728516,258.734497 1553.683472,249.731796 
	C1557.006104,252.506561 1559.638794,255.858826 1563.080444,257.373901 
	C1576.002075,263.062347 1588.720337,263.749847 1600.876099,254.686829 
	C1610.395264,247.589615 1613.171875,232.599411 1606.646973,223.215866 
	C1599.759277,213.310944 1599.454224,201.645676 1596.902954,190.901794 
	C1607.721680,188.155487 1617.927734,185.470886 1628.197510,183.057144 
	C1629.766724,182.688309 1632.237061,182.967682 1633.247925,183.984207 
	C1636.835571,187.591797 1640.263428,191.439499 1643.224243,195.573959 
	C1652.188599,208.092026 1652.791748,223.139587 1654.774902,237.552811 
	C1656.044922,246.782654 1660.730347,252.593231 1667.941040,257.431702 
	C1674.988647,262.160767 1682.845337,260.782013 1690.525269,261.006317 
	C1701.494629,261.326691 1716.131836,248.019089 1714.114136,235.485062 
	C1713.184448,229.709488 1713.310913,223.763870 1712.904053,216.989212 
	C1715.361572,220.492020 1717.202515,222.917389 1718.832642,225.477142 
	C1723.637329,233.022125 1728.021484,240.863678 1733.246948,248.100540 
	C1736.080078,252.024063 1739.836792,255.723038 1743.978027,258.164276 
	C1751.779785,262.763519 1760.737915,261.054657 1769.253906,260.717499 
	C1771.939087,260.611206 1774.759644,258.842773 1777.149536,257.273651 
	C1785.808716,251.588470 1791.214233,244.066803 1788.930786,233.089905 
	C1788.122192,229.202820 1787.015991,225.211456 1785.147705,221.752701 
	C1782.754395,217.321518 1779.623169,213.248718 1776.513062,209.252579 
	C1767.542603,197.726486 1762.981201,184.283768 1758.673218,169.851471 
	C1762.515015,170.090317 1765.876221,169.841476 1769.005859,170.577026 
	C1779.706177,173.091888 1789.584595,177.553177 1798.527588,184.020447 
	C1811.591431,193.467865 1823.203125,204.496231 1833.338257,216.977188 
	C1839.597290,224.684952 1845.887573,232.542908 1850.833618,241.102158 
	C1859.269775,255.701355 1871.393677,262.445709 1887.931763,260.890320 
	C1895.079224,260.218109 1901.775024,257.156799 1905.750854,250.940582 
	C1908.165161,247.166031 1910.048706,247.286591 1913.350952,249.027710 
	C1928.974365,257.265198 1945.339233,262.450531 1963.324097,261.049896 
	C1967.631226,260.714447 1971.992065,260.858887 1976.318970,261.025208 
	C1992.888794,261.662109 2008.087158,256.140961 2022.177002,248.687683 
	C2039.761841,239.385559 2052.755127,224.827225 2060.177979,206.159515 
	C2063.143066,198.702255 2064.506592,190.554504 2066.078125,182.617905 
	C2066.962402,178.151810 2066.972900,173.477737 2067.028809,168.893112 
	C2067.077393,164.930923 2067.779053,160.426987 2066.216064,157.087326 
	C2058.330811,140.239578 2045.121216,134.946579 2027.840576,137.438461 
	C2023.148926,138.114990 2018.101196,140.971802 2014.614014,144.294205 
	C2008.999146,149.644089 2007.743042,157.355988 2008.106567,164.864212 
	C2008.461304,172.195801 2007.045288,178.913193 2004.047607,185.512650 
	C1999.790039,194.885269 1992.620239,201.832596 1983.504517,205.399918 
	C1976.415771,208.173996 1968.105347,209.005661 1960.397461,208.767899 
	C1945.194580,208.298981 1932.898926,202.224228 1926.919189,186.929031 
	C1924.714111,181.288406 1926.152466,176.882156 1931.418213,174.158997 
	C1943.872559,167.718185 1957.286621,165.547516 1971.103638,164.983398 
	C1984.630859,164.431122 2000.026489,153.067184 1994.314819,134.727875 
	C1990.974487,124.002441 1977.284180,114.378334 1967.554688,114.876122 
	C1956.916016,115.420433 1946.227905,115.031990 1935.561646,114.984612 
	C1930.861084,114.963730 1930.253296,113.734428 1931.897217,109.213608 
	C1932.886230,106.493683 1933.465454,103.598610 1933.980347,100.737518 
	C1935.320923,93.288300 1939.642944,90.321106 1946.936646,92.509583 
	C1951.547729,93.893074 1955.989014,95.868530 1960.456177,97.700836 
	C1972.479126,102.632500 1983.155273,109.852875 1993.244385,117.866882 
	C2002.239258,125.011620 2011.968628,129.602737 2023.600220,127.886375 
	C2030.690674,126.840118 2037.389038,123.452225 2041.363281,117.599991 
	C2045.615967,111.337967 2046.964233,103.794731 2042.984619,95.598824 
	C2058.915039,94.101875 2074.207275,92.664886 2089.718018,91.207375 
	C2090.193848,99.544052 2090.660889,106.603752 2090.975830,113.670242 
	C2091.161865,117.843575 2090.896973,122.043686 2091.214600,126.202751 
	C2091.600830,131.252808 2092.375244,136.273743 2093.002930,141.304642 
	C2093.874268,148.286850 2094.689209,155.277283 2095.669189,162.244431 
	C2096.692627,169.521530 2097.843262,176.781494 2099.009521,184.037521 
	C2100.377197,192.547150 2101.584717,201.092300 2103.293701,209.534622 
	C2105.290527,219.398804 2107.421875,229.261185 2110.121338,238.949707 
	C2112.241699,246.558853 2116.260986,253.179626 2123.256836,257.605652 
	C2129.852295,261.778229 2137.082764,262.130157 2144.587646,262.063751 
	C2160.967285,261.918854 2171.708740,249.535416 2167.721680,232.540405 
	C2165.319580,222.299683 2162.195801,212.216507 2160.093018,201.920197 
	C2157.358887,188.527969 2154.947266,175.045273 2153.081787,161.507141 
	C2151.270264,148.359467 2150.328857,135.092041 2148.989014,121.878853 
	C2148.890625,120.906425 2148.571289,119.953773 2148.501953,118.981461 
	C2148.014648,112.132370 2147.566162,105.280525 2147.111328,98.516022 
	C2154.457031,99.025253 2161.498535,99.401855 2168.516357,100.042847 
	C2172.559814,100.412178 2176.953125,100.353020 2180.514160,101.971542 
	C2191.842285,107.120331 2203.232422,108.987190 2215.595703,104.801064 
	C2216.761963,108.845062 2217.838135,112.705391 2218.988037,116.543610 
	C2224.312256,134.311584 2228.776611,152.400803 2235.227295,169.750931 
	C2242.553711,189.455261 2251.205078,208.656052 2262.591553,226.580521 
	C2268.538574,235.942047 2274.833008,244.689255 2282.787842,252.440720 
	C2292.916504,262.310364 2305.632812,263.281097 2317.530518,260.272369 
	C2337.044922,255.337524 2342.216553,234.489395 2328.617920,218.985260 
	C2322.244629,211.718979 2315.728760,204.638626 2312.012939,195.628738 
	C2336.563965,188.070541 2358.371094,177.010620 2372.651123,153.467682 
	C2373.208984,156.934509 2373.670898,159.396423 2373.992188,161.876511 
	C2374.918213,169.024292 2375.980469,176.161819 2376.634033,183.335709 
	C2377.595703,193.889435 2378.450928,204.461655 2378.952881,215.044876 
	C2379.218018,220.634369 2378.137451,226.302231 2378.562500,231.866058 
	C2379.144531,239.481491 2382.554688,245.645569 2388.301514,251.214127 
	C2394.264893,256.992432 2400.591553,261.260773 2408.738770,260.861969 
	C2426.663086,259.984650 2444.546143,258.291626 2462.454346,257.056152 
	C2474.041016,256.256805 2485.637939,255.255310 2497.239502,255.112915 
	C2510.165283,254.954285 2523.218750,256.843079 2535.990479,255.569977 
	C2543.964844,254.775070 2550.368896,255.805588 2557.619629,258.738098 
	C2563.435303,261.090179 2570.484863,260.590240 2577.009277,260.943542 
	C2585.617432,261.409637 2595.217285,252.837830 2596.033691,243.760239 
	C2596.616943,237.276917 2597.524902,230.822830 2598.213867,224.985321 
	C2612.281738,224.985321 2626.248291,224.212173 2640.088135,225.202957 
	C2653.898926,226.191681 2667.536621,229.521255 2681.346436,230.636276 
	C2686.604980,231.060883 2687.697266,234.131149 2688.860596,237.258453 
	C2696.440186,257.635040 2717.356689,265.743530 2737.149414,259.601776 
	C2740.572021,258.539734 2743.330322,254.806290 2745.989014,251.931000 
	C2750.508301,247.043808 2749.959961,241.050308 2749.111816,234.888275 
	C2749.433838,234.575302 2749.561768,234.449203 2749.943848,234.547302 
	C2752.591553,236.471848 2755.011963,238.136169 2757.374512,239.878708 
	C2768.768799,248.282867 2781.612549,253.694336 2794.977539,257.968872 
	C2807.971191,262.124634 2821.422852,260.665588 2834.738525,261.062103 
	C2848.391113,261.468628 2860.972656,258.501678 2873.094482,252.039719 
	C2883.169922,246.668472 2891.307861,239.514496 2897.341797,230.051193 
	C2900.876221,224.508209 2903.520508,218.397446 2906.454102,212.755829 
	C2907.713623,214.091049 2909.350098,215.496780 2910.590332,217.192276 
	C2920.876953,231.253601 2934.896484,240.888931 2949.950195,248.741211 
	C2974.692871,261.647064 3001.423340,263.611115 3028.605713,259.910217 
	C3048.117432,257.253632 3064.560547,248.776215 3077.190186,232.946655 
	C3084.497559,223.788132 3088.146240,213.615662 3090.071777,202.432709 
	C3090.225830,201.537659 3091.334717,200.807022 3092.000000,200.000000 
	C3092.000000,223.663498 3092.000000,247.326981 3092.000000,270.995239 
	C2116.300537,271.000000 1140.601196,271.000000 164.088684,270.771790 
	C164.883255,269.479401 166.460083,268.364716 168.104034,267.359924 
	C174.434372,263.490845 180.532043,259.106110 183.704147,252.293579 
	C186.737289,245.779465 188.953796,238.823166 190.914856,231.887512 
	C193.363098,223.228973 195.182831,214.392746 197.458710,204.859100 
	C199.168976,208.803116 200.820297,211.945236 201.919159,215.269943 
	C205.237793,225.310822 211.946152,233.103928 219.717926,239.547806 
	C225.867126,244.646347 233.358215,248.306488 240.624161,251.843857 
	C261.167908,261.845367 283.139404,261.671082 304.944183,258.661926 
	C323.547729,256.094574 341.229279,249.464371 357.330719,239.736710 
	C375.659729,228.663269 390.918427,214.124710 402.143005,195.629501 
	C403.826172,192.856033 406.073669,190.425064 408.060150,187.835663 
	C407.818512,203.659683 410.290894,218.259933 418.348083,231.649994 
	C422.902222,239.218323 428.972534,245.525833 436.563446,249.609940 
	C447.330719,255.403000 458.768097,259.882751 471.350952,260.114868 
	C485.789093,260.381165 500.387360,262.148193 514.624329,260.592773 
	C532.839417,258.602692 549.874634,252.097000 565.382812,241.477539 
	C579.293579,231.951935 589.833740,219.605957 597.636658,205.244858 
	C607.066406,187.889603 611.482849,168.784790 612.168762,148.834579 
	C613.679565,149.973236 615.436768,150.860962 616.601196,152.246780 
	C623.608093,160.586334 633.290833,164.923599 643.122131,167.748352 
	C661.210632,172.945602 679.775024,176.462921 698.031250,181.111740 
	C704.861694,182.851044 712.379272,183.369370 717.739746,188.904694 
	C718.743225,189.940979 719.918457,191.507584 719.850464,192.766632 
	C719.522278,198.848434 715.979797,203.348587 710.882141,205.908569 
	C697.036682,212.861710 683.133667,211.427032 670.113586,203.831100 
	C666.591064,201.776047 663.924622,197.353394 662.135376,193.437119 
	C659.405640,187.462357 657.603516,181.242020 651.267944,177.686981 
	C645.909058,174.679916 640.212341,175.362137 634.521484,174.924088 
	C620.424866,173.838974 608.420959,185.220917 604.373352,197.078445 
	C601.243591,206.246948 598.383057,215.531876 594.737366,224.494354 
	C588.246460,240.451385 593.594666,251.176758 605.963440,256.259216 
	C615.410217,260.140991 624.979980,258.448761 633.543335,252.842422 
	C636.680603,250.788483 639.238586,250.341797 642.701538,252.177521 
	C654.039185,258.187622 666.430542,260.862915 679.076233,260.801605 
	C689.859863,260.749390 700.921021,260.173035 711.348206,257.685547 
	C727.610474,253.806076 742.887878,246.958481 754.799622,234.577393 
	C760.148621,229.017593 764.810669,222.796860 769.359497,217.381866 
	C770.207397,225.179062 771.007751,233.425339 772.023193,241.645035 
	C773.192810,251.112869 778.434875,257.657196 787.606567,259.955048 
	C792.780823,261.251404 798.413574,260.924011 803.842224,260.959473 
	C818.667297,261.056396 835.055664,243.759628 830.495483,226.686539 
	C829.147156,221.638321 829.198792,216.216217 828.608948,210.965454 
	C831.147156,214.489853 832.834717,218.129517 834.913208,221.530182 
	C838.346252,227.147079 841.338623,233.255692 845.759399,237.998734 
	C854.171021,247.023468 865.120300,252.712631 876.568604,256.865601 
	C894.928223,263.525757 914.110962,262.087463 932.901917,259.836029 
	C954.816162,257.210358 974.396240,248.205048 991.623230,234.129135 
	C1004.137329,223.904053 1014.572144,211.819748 1021.394592,197.390213 
	C1026.297119,187.021286 1029.311157,175.562073 1031.730957,164.281082 
	C1033.560791,155.751297 1030.906982,147.455658 1023.135864,142.152527 
	C1007.899353,131.754868 981.909180,136.084412 974.941101,157.200073 
	C973.541077,161.442612 972.124023,165.695236 971.050049,170.026321 
	C969.010376,178.251755 964.665955,185.154297 959.183167,191.409714 
	C947.200928,205.080399 931.536133,209.940155 914.048157,208.844650 
	C902.029785,208.091766 892.178650,202.902145 887.337769,190.808609 
	C885.377136,185.910614 887.205627,178.230850 891.068176,175.913284 
	C903.298889,168.574707 917.057434,166.882126 930.786438,164.960800 
	C936.711121,164.131668 942.788208,163.517136 948.420349,161.663376 
	C958.560608,158.325806 966.280640,144.976898 964.999268,134.580566 
	C963.675659,123.840721 952.989563,114.340462 942.376221,114.864632 
	C930.463074,115.452988 918.498474,114.999870 905.554993,114.999870 
	C908.153381,109.396255 910.042725,104.205650 912.829468,99.552483 
	C918.070801,90.800720 920.470520,89.994438 930.106812,93.535316 
	C942.633118,98.138107 953.130737,106.033661 963.362061,114.430168 
	C968.996887,119.054428 974.823669,124.107224 981.450378,126.709549 
	C992.152405,130.912247 1002.410461,127.209335 1011.572815,120.875008 
	C1018.429443,116.134644 1024.538696,105.314018 1021.939270,95.520370 
	C1020.858704,91.449173 1020.305664,87.172218 1020.064758,82.957291 
	C1019.525085,73.511871 1019.355591,64.045677 1018.963867,54.590904 
	C1018.918762,53.502007 1018.622253,52.320904 1018.100342,51.370327 
	C1013.127930,42.313637 1005.430481,37.388313 995.115723,37.044014 
	C982.958496,36.638214 972.567383,40.375809 965.481995,50.998325 
	C949.407288,43.897175 932.975891,40.313145 915.384521,42.930862 
	C893.169495,46.236607 876.228821,57.907204 864.185425,76.134041 
	C855.945251,88.604965 849.830566,102.433434 846.267944,117.181252 
	C846.308777,117.213936 846.393433,117.275345 846.196594,116.849709 
	C846.658203,109.059601 847.189087,101.680946 848.005554,94.334045 
	C849.169495,83.860870 838.637573,71.813629 826.669189,71.105034 
	C813.019287,70.296890 801.476318,75.013817 793.757141,86.809990 
	C790.475098,91.825485 790.091370,97.617355 789.670593,103.684860 
	C789.013550,113.158791 786.496521,122.519432 784.559753,131.885086 
	C781.905701,144.719604 779.057068,157.513870 776.051880,171.437103 
	C774.375488,167.904007 773.408325,164.650589 771.503845,162.095947 
	C767.063782,156.140213 762.293884,150.310730 755.401917,146.996918 
	C746.769348,142.846207 738.309753,137.882507 729.201172,135.277802 
	C714.239441,130.999298 698.777588,128.498001 683.604553,124.917023 
	C677.024658,123.364105 670.629944,121.017609 664.168030,118.977753 
	C661.118286,118.015022 660.860229,115.926865 662.010132,113.280663 
	C664.232910,108.165245 668.045166,104.748642 672.668152,101.644249 
	C686.092163,92.629913 700.564270,88.383392 716.627075,91.074638 
	C729.402771,93.215149 733.405090,99.902542 730.805481,111.716789 
	C728.128845,123.881493 734.770569,129.924011 742.436584,133.807602 
	C750.680237,137.983826 760.186768,137.491226 768.654602,133.612656 
	C781.525146,127.717484 786.948669,116.795517 788.125610,102.957993 
	C789.074097,91.806587 790.434814,80.627274 795.268311,70.212471 
	C798.576477,63.084583 795.965515,56.270939 791.846741,50.704308 
	C787.735413,45.147743 780.946411,43.240597 774.106750,43.070969 
	C766.870239,42.891502 759.786682,43.827408 753.440186,47.913094 
	C752.473083,48.535698 750.795410,48.415306 749.539124,48.167873 
	C742.863281,46.852962 736.266052,44.558022 729.549561,44.161991 
	C718.398071,43.504448 707.054016,43.006447 696.015442,44.322468 
	C682.146667,45.975903 668.991455,50.992977 656.307556,56.993069 
	C640.298462,64.566139 626.686462,75.003838 616.724060,89.826416 
	C614.806641,92.679138 613.195374,95.737617 610.758240,99.859024 
	C609.693359,93.247047 608.882568,87.982315 607.990479,82.731400 
	C606.844116,75.983910 606.365417,69.310242 599.577026,64.732452 
	C590.093262,58.336975 580.448181,58.910954 570.431824,62.044189 
	C556.786987,66.312477 548.630981,78.030220 549.409180,92.146370 
	C549.611755,95.820206 550.711548,99.441856 550.952698,103.116783 
	C551.754578,115.333549 552.419617,127.560425 553.013184,139.789444 
	C553.772705,155.436661 551.367493,170.709473 545.749084,185.240158 
	C542.210754,194.391220 536.305115,202.749969 526.529541,205.776779 
	C511.895264,210.307922 496.854279,210.014145 481.949890,206.073196 
	C475.332306,204.323395 470.813507,199.986740 470.060211,193.537003 
	C469.417328,188.032578 468.319244,182.294556 469.206665,176.956451 
	C471.200531,164.963058 473.746002,152.992905 477.123596,141.319016 
	C479.982544,131.437881 484.014008,121.851982 488.090485,112.378059 
	C493.461121,99.896446 499.167908,87.546402 505.156006,75.348846 
	C508.320465,68.902870 507.312531,54.820721 502.563782,50.216545 
	C492.171936,40.141071 474.011444,41.724590 463.948944,48.640629 
	C458.998962,52.042759 454.655334,56.341553 449.644592,59.637474 
	C442.494598,64.340492 435.005737,68.532204 427.619843,72.871239 
	C422.514282,75.870628 417.338287,78.750023 412.447235,81.538551 
	C409.493286,78.038071 406.987946,74.466118 403.893341,71.511307 
	C393.162872,61.265598 379.975494,54.906078 366.215057,50.290382 
	C347.206268,43.914207 327.275726,42.756138 307.339447,43.062649 
	C294.496948,43.260098 284.205292,49.134846 275.801270,58.647701 
	C273.854614,60.851215 271.881744,63.269524 269.411072,64.721222 
	C264.673553,67.504829 259.365540,69.325752 254.661850,72.156876 
	C244.770126,78.110641 235.757767,85.202019 228.794373,94.582634 
	C223.206696,102.109955 217.659592,109.667397 212.371490,116.835960 
	C212.922424,110.204674 213.465149,102.925491 214.146271,95.659279 
	C215.040100,86.123680 216.597397,76.608131 216.766647,67.064407 
	C216.852112,62.245693 214.751129,57.611351 210.036560,54.251434 
	C204.319901,50.177372 198.264511,49.594440 191.795990,50.019657 
	C178.288208,50.907600 167.808655,57.211811 161.141220,68.868309 
	C155.632019,78.499908 157.133148,89.832031 155.078003,100.326210 
	C153.631302,107.713501 153.149261,115.284737 152.049500,122.746277 
	C150.831726,131.008362 149.401001,139.239059 148.146011,146.972046 
	C124.713997,145.295486 101.484001,143.633392 77.574379,141.922684 
	C78.337357,137.318802 79.107826,132.287384 80.014801,127.280685 
	C81.635246,118.335541 82.791153,109.258278 85.144249,100.505913 
	C88.114525,89.457916 91.644562,78.508865 95.752686,67.832489 
	C100.057869,56.643978 90.200134,42.897076 79.553711,43.944420 
	C76.065567,44.287571 72.513336,43.923836 68.993744,44.013706 
	C60.399609,44.233143 53.218029,48.078911 47.039097,53.575535 
	C37.618576,61.955780 34.449837,73.803604 31.115683,85.272079 
	C28.127542,95.550377 26.069941,106.105713 23.771694,116.576126 
	C21.716354,125.939903 20.022144,135.383911 17.901289,144.731857 
	C17.092705,148.295807 16.120762,152.061081 14.196241,155.079865 
	C10.989210,160.110367 6.979831,164.633377 3.242124,169.317276 
	C2.677894,170.024323 1.756295,170.446213 1.000001,171.000000 
z"/>
<path fill="#FF6B35" opacity="1.000000" stroke="none" 
	d="
M3092.000000,199.531464 
	C3091.334717,200.807022 3090.225830,201.537659 3090.071777,202.432709 
	C3088.146240,213.615662 3084.497559,223.788132 3077.190186,232.946655 
	C3064.560547,248.776215 3048.117432,257.253632 3028.605713,259.910217 
	C3001.423340,263.611115 2974.692871,261.647064 2949.950195,248.741211 
	C2934.896484,240.888931 2920.876953,231.253601 2910.590332,217.192276 
	C2909.350098,215.496780 2907.713623,214.091049 2906.454102,212.755829 
	C2903.520508,218.397446 2900.876221,224.508209 2897.341797,230.051193 
	C2891.307861,239.514496 2883.169922,246.668472 2873.094482,252.039719 
	C2860.972656,258.501678 2848.391113,261.468628 2834.738525,261.062103 
	C2821.422852,260.665588 2807.971191,262.124634 2794.977539,257.968872 
	C2781.612549,253.694336 2768.768799,248.282867 2757.374512,239.878708 
	C2755.011963,238.136169 2752.591553,236.471848 2749.752686,234.327698 
	C2748.967529,233.716354 2748.627930,233.548798 2748.288086,233.381195 
	C2748.498047,233.945801 2748.708008,234.510483 2748.917725,235.075165 
	C2749.959961,241.050308 2750.508301,247.043808 2745.989014,251.931000 
	C2743.330322,254.806290 2740.572021,258.539734 2737.149414,259.601776 
	C2717.356689,265.743530 2696.440186,257.635040 2688.860596,237.258453 
	C2687.697266,234.131149 2686.604980,231.060883 2681.346436,230.636276 
	C2667.536621,229.521255 2653.898926,226.191681 2640.088135,225.202957 
	C2626.248291,224.212173 2612.281738,224.985321 2598.213867,224.985321 
	C2597.524902,230.822830 2596.616943,237.276917 2596.033691,243.760239 
	C2595.217285,252.837830 2585.617432,261.409637 2577.009277,260.943542 
	C2570.484863,260.590240 2563.435303,261.090179 2557.619629,258.738098 
	C2550.368896,255.805588 2543.964844,254.775070 2535.990479,255.569977 
	C2523.218750,256.843079 2510.165283,254.954285 2497.239502,255.112915 
	C2485.637939,255.255310 2474.041016,256.256805 2462.454346,257.056152 
	C2444.546143,258.291626 2426.663086,259.984650 2408.738770,260.861969 
	C2400.591553,261.260773 2394.264893,256.992432 2388.301514,251.214127 
	C2382.554688,245.645569 2379.144531,239.481491 2378.562500,231.866058 
	C2378.137451,226.302231 2379.218018,220.634369 2378.952881,215.044876 
	C2378.450928,204.461655 2377.595703,193.889435 2376.634033,183.335709 
	C2375.980469,176.161819 2374.918213,169.024292 2373.992188,161.876511 
	C2373.670898,159.396423 2373.208984,156.934509 2372.651123,153.467682 
	C2358.371094,177.010620 2336.563965,188.070541 2312.012939,195.628738 
	C2315.728760,204.638626 2322.244629,211.718979 2328.617920,218.985260 
	C2342.216553,234.489395 2337.044922,255.337524 2317.530518,260.272369 
	C2305.632812,263.281097 2292.916504,262.310364 2282.787842,252.440720 
	C2274.833008,244.689255 2268.538574,235.942047 2262.591553,226.580521 
	C2251.205078,208.656052 2242.553711,189.455261 2235.227295,169.750931 
	C2228.776611,152.400803 2224.312256,134.311584 2218.988037,116.543610 
	C2217.838135,112.705391 2216.761963,108.845062 2215.595703,104.801064 
	C2203.232422,108.987190 2191.842285,107.120331 2180.514160,101.971542 
	C2176.953125,100.353020 2172.559814,100.412178 2168.516357,100.042847 
	C2161.498535,99.401855 2154.457031,99.025253 2147.111328,98.516022 
	C2147.566162,105.280525 2148.014648,112.132370 2148.501953,118.981461 
	C2148.571289,119.953773 2148.890625,120.906425 2148.989014,121.878853 
	C2150.328857,135.092041 2151.270264,148.359467 2153.081787,161.507141 
	C2154.947266,175.045273 2157.358887,188.527969 2160.093018,201.920197 
	C2162.195801,212.216507 2165.319580,222.299683 2167.721680,232.540405 
	C2171.708740,249.535416 2160.967285,261.918854 2144.587646,262.063751 
	C2137.082764,262.130157 2129.852295,261.778229 2123.256836,257.605652 
	C2116.260986,253.179626 2112.241699,246.558853 2110.121338,238.949707 
	C2107.421875,229.261185 2105.290527,219.398804 2103.293701,209.534622 
	C2101.584717,201.092300 2100.377197,192.547150 2099.009521,184.037521 
	C2097.843262,176.781494 2096.692627,169.521530 2095.669189,162.244431 
	C2094.689209,155.277283 2093.874268,148.286850 2093.002930,141.304642 
	C2092.375244,136.273743 2091.600830,131.252808 2091.214600,126.202751 
	C2090.896973,122.043686 2091.161865,117.843575 2090.975830,113.670242 
	C2090.660889,106.603752 2090.193848,99.544052 2089.718018,91.207375 
	C2074.207275,92.664886 2058.915039,94.101875 2042.984619,95.598824 
	C2046.964233,103.794731 2045.615967,111.337967 2041.363281,117.599991 
	C2037.389038,123.452225 2030.690674,126.840118 2023.600220,127.886375 
	C2011.968628,129.602737 2002.239258,125.011620 1993.244385,117.866882 
	C1983.155273,109.852875 1972.479126,102.632500 1960.456177,97.700836 
	C1955.989014,95.868530 1951.547729,93.893074 1946.936646,92.509583 
	C1939.642944,90.321106 1935.320923,93.288300 1933.980347,100.737518 
	C1933.465454,103.598610 1932.886230,106.493683 1931.897217,109.213608 
	C1930.253296,113.734428 1930.861084,114.963730 1935.561646,114.984612 
	C1946.227905,115.031990 1956.916016,115.420433 1967.554688,114.876122 
	C1977.284180,114.378334 1990.974487,124.002441 1994.314819,134.727875 
	C2000.026489,153.067184 1984.630859,164.431122 1971.103638,164.983398 
	C1957.286621,165.547516 1943.872559,167.718185 1931.418213,174.158997 
	C1926.152466,176.882156 1924.714111,181.288406 1926.919189,186.929031 
	C1932.898926,202.224228 1945.194580,208.298981 1960.397461,208.767899 
	C1968.105347,209.005661 1976.415771,208.173996 1983.504517,205.399918 
	C1992.620239,201.832596 1999.790039,194.885269 2004.047607,185.512650 
	C2007.045288,178.913193 2008.461304,172.195801 2008.106567,164.864212 
	C2007.743042,157.355988 2008.999146,149.644089 2014.614014,144.294205 
	C2018.101196,140.971802 2023.148926,138.114990 2027.840576,137.438461 
	C2045.121216,134.946579 2058.330811,140.239578 2066.216064,157.087326 
	C2067.779053,160.426987 2067.077393,164.930923 2067.028809,168.893112 
	C2066.972900,173.477737 2066.962402,178.151810 2066.078125,182.617905 
	C2064.506592,190.554504 2063.143066,198.702255 2060.177979,206.159515 
	C2052.755127,224.827225 2039.761841,239.385559 2022.177002,248.687683 
	C2008.087158,256.140961 1992.888794,261.662109 1976.318970,261.025208 
	C1971.992065,260.858887 1967.631226,260.714447 1963.324097,261.049896 
	C1945.339233,262.450531 1928.974365,257.265198 1913.350952,249.027710 
	C1910.048706,247.286591 1908.165161,247.166031 1905.750854,250.940582 
	C1901.775024,257.156799 1895.079224,260.218109 1887.931763,260.890320 
	C1871.393677,262.445709 1859.269775,255.701355 1850.833618,241.102158 
	C1845.887573,232.542908 1839.597290,224.684952 1833.338257,216.977188 
	C1823.203125,204.496231 1811.591431,193.467865 1798.527588,184.020447 
	C1789.584595,177.553177 1779.706177,173.091888 1769.005859,170.577026 
	C1765.876221,169.841476 1762.515015,170.090317 1758.673218,169.851471 
	C1762.981201,184.283768 1767.542603,197.726486 1776.513062,209.252579 
	C1779.623169,213.248718 1782.754395,217.321518 1785.147705,221.752701 
	C1787.015991,225.211456 1788.122192,229.202820 1788.930786,233.089905 
	C1791.214233,244.066803 1785.808716,251.588470 1777.149536,257.273651 
	C1774.759644,258.842773 1771.939087,260.611206 1769.253906,260.717499 
	C1760.737915,261.054657 1751.779785,262.763519 1743.978027,258.164276 
	C1739.836792,255.723038 1736.080078,252.024063 1733.246948,248.100540 
	C1728.021484,240.863678 1723.637329,233.022125 1718.832642,225.477142 
	C1717.202515,222.917389 1715.361572,220.492020 1712.904053,216.989212 
	C1713.310913,223.763870 1713.184448,229.709488 1714.114136,235.485062 
	C1716.131836,248.019089 1701.494629,261.326691 1690.525269,261.006317 
	C1682.845337,260.782013 1674.988647,262.160767 1667.941040,257.431702 
	C1660.730347,252.593231 1656.044922,246.782654 1654.774902,237.552811 
	C1652.791748,223.139587 1652.188599,208.092026 1643.224243,195.573959 
	C1640.263428,191.439499 1636.835571,187.591797 1633.247925,183.984207 
	C1632.237061,182.967682 1629.766724,182.688309 1628.197510,183.057144 
	C1617.927734,185.470886 1607.721680,188.155487 1596.902954,190.901794 
	C1599.454224,201.645676 1599.759277,213.310944 1606.646973,223.215866 
	C1613.171875,232.599411 1610.395264,247.589615 1600.876099,254.686829 
	C1588.720337,263.749847 1576.002075,263.062347 1563.080444,257.373901 
	C1559.638794,255.858826 1557.006104,252.506561 1553.683472,249.731796 
	C1547.728516,258.734497 1538.434448,261.736969 1528.733643,261.768311 
	C1513.780762,261.816528 1500.874390,256.056580 1497.463989,236.880508 
	C1496.431519,231.074341 1493.596802,230.758347 1490.082642,230.150391 
	C1463.883179,225.617767 1437.578003,222.217621 1410.424072,224.472641 
	C1408.311279,230.210022 1405.938843,236.369034 1403.771729,242.599487 
	C1399.872925,253.808502 1389.568726,261.338593 1377.693359,261.059326 
	C1370.921387,260.900116 1364.197510,261.316803 1357.969604,257.691071 
	C1356.862183,257.046356 1354.540527,257.775513 1353.111328,258.513031 
	C1345.091187,262.651459 1336.435669,261.693481 1328.301025,260.430969 
	C1320.162476,259.167908 1314.751465,252.950378 1311.805054,245.197357 
	C1311.004272,243.090393 1310.904907,240.555252 1311.084717,238.263840 
	C1312.202148,224.029770 1313.493774,209.809402 1314.717651,195.583618 
	C1314.845093,194.102036 1314.983276,192.615051 1314.987427,191.130219 
	C1315.012695,182.281235 1315.000244,173.432175 1315.000244,164.583130 
	C1315.000244,152.250015 1315.066895,139.916336 1314.961670,127.584114 
	C1314.927246,123.554695 1314.444824,119.529099 1314.167358,115.501755 
	C1313.717285,115.316895 1313.267090,115.132027 1312.817017,114.947159 
	C1309.806274,119.153503 1306.568237,123.217590 1303.828369,127.593552 
	C1296.421631,139.422745 1289.224976,151.383453 1281.948853,163.294388 
	C1277.058105,171.300583 1272.854614,179.858871 1267.020508,187.104782 
	C1263.744873,191.173080 1258.058838,194.798538 1252.970825,195.627655 
	C1237.956909,198.074203 1222.153442,193.508072 1216.617676,175.855408 
	C1213.457153,165.777115 1207.361816,156.612411 1202.520142,147.070709 
	C1199.731445,141.574753 1196.856934,136.120590 1193.915283,130.705017 
	C1193.015503,129.048538 1191.765015,127.582619 1189.851196,124.855385 
	C1189.040283,128.478500 1188.148315,130.789307 1188.071777,133.126770 
	C1187.858643,139.643753 1188.225342,146.183487 1187.910522,152.692337 
	C1187.570435,159.724258 1186.541992,166.721558 1186.148071,173.752701 
	C1185.858276,178.922653 1185.920044,184.131134 1186.153198,189.307678 
	C1186.657104,200.495819 1187.386963,211.673660 1187.994751,222.857315 
	C1188.307373,228.610703 1189.644531,234.574585 1188.597412,240.077789 
	C1186.688599,250.109985 1179.719849,257.058319 1170.078979,259.551300 
	C1163.424683,261.272003 1155.897461,261.372375 1149.078491,260.255219 
	C1140.595459,258.865417 1131.775391,250.550369 1130.992554,237.888901 
	C1130.382324,228.022171 1129.267944,218.168365 1129.108887,208.296997 
	C1128.944458,198.102158 1129.709106,187.894287 1129.974976,177.689713 
	C1130.096802,173.009338 1129.756348,168.308289 1130.044556,163.642502 
	C1130.917358,149.512482 1131.106079,135.260330 1133.222290,121.307693 
	C1135.738403,104.718918 1139.279297,88.200974 1143.691284,72.010704 
	C1147.317505,58.703568 1155.160645,48.244179 1169.875366,44.929398 
	C1185.009155,41.520264 1198.655029,44.898895 1209.097046,55.988293 
	C1217.671265,65.094124 1224.794922,75.660942 1231.879639,86.045410 
	C1237.922607,94.903053 1242.995239,104.422813 1248.582031,113.791916 
	C1252.324463,108.392097 1255.902222,102.846870 1259.862915,97.590172 
	C1269.772827,84.437668 1279.926636,71.386795 1293.302612,61.546265 
	C1304.928467,52.993320 1317.957764,47.491600 1332.759033,50.534996 
	C1348.206543,53.711258 1358.275146,63.750858 1362.804321,78.559311 
	C1365.732666,88.133575 1367.580933,98.143471 1368.842285,108.093872 
	C1370.210205,118.885170 1370.324097,129.834702 1371.007202,140.713806 
	C1371.306519,145.481567 1371.661255,150.245850 1371.659668,155.610046 
	C1371.282349,156.990128 1371.235840,157.771881 1371.138306,159.414368 
	C1371.946533,157.976868 1372.305054,157.339172 1372.663574,156.701462 
	C1374.049561,153.971405 1375.619263,151.317596 1376.788940,148.497833 
	C1381.304932,137.610687 1385.648926,126.652321 1390.147095,115.757668 
	C1392.446167,110.189186 1394.327759,104.324883 1397.455811,99.245697 
	C1406.330200,84.835678 1414.862427,70.064583 1425.275391,56.806992 
	C1431.867310,48.414227 1441.692993,44.003010 1453.633057,43.631828 
	C1466.815063,43.222046 1476.909790,48.063255 1485.825073,56.526703 
	C1489.856323,60.353573 1492.875488,65.246277 1496.657471,70.040298 
	C1498.127930,54.033310 1507.582153,47.712955 1520.475830,45.355133 
	C1535.594360,42.590435 1551.157959,41.599602 1566.559937,41.258629 
	C1578.154419,41.001942 1589.782593,43.400768 1601.425293,43.848900 
	C1613.186035,44.301575 1624.301270,47.320152 1635.355957,50.773342 
	C1647.654541,54.615074 1658.697998,60.765667 1668.172241,69.619331 
	C1669.308960,70.681740 1670.859131,71.301613 1672.387329,72.229492 
	C1675.571045,61.308395 1684.321777,57.866135 1693.622070,54.976654 
	C1706.775146,50.890129 1719.776489,46.283772 1733.022705,42.535751 
	C1749.931274,37.751465 1765.611450,42.075153 1773.704590,58.910297 
	C1777.283081,66.354263 1775.450073,74.694191 1770.051147,80.865623 
	C1761.189331,90.995506 1758.685669,103.441223 1754.492310,116.591888 
	C1769.332397,109.412514 1784.068848,104.188690 1792.835327,90.418900 
	C1794.649048,87.570007 1795.923218,83.754005 1795.834961,80.426384 
	C1795.461304,66.313705 1808.367065,55.589649 1821.092285,54.965508 
	C1831.824585,54.439106 1841.508545,56.807983 1848.645508,65.281410 
	C1853.647827,71.220291 1855.972290,77.873619 1855.370972,86.282112 
	C1854.701172,95.647537 1853.299316,104.604652 1848.585327,112.513237 
	C1843.368530,121.265564 1837.465698,129.723785 1828.836182,135.715607 
	C1828.176270,136.173950 1827.696167,136.891541 1827.420288,137.183807 
	C1840.703369,147.906738 1853.936035,158.588928 1867.585815,169.607758 
	C1868.171509,158.862473 1873.044678,151.029541 1879.876099,143.601349 
	C1874.505249,135.525848 1871.106445,125.913269 1872.262695,115.926399 
	C1873.578613,104.561653 1876.553223,93.334396 1879.482788,82.225655 
	C1882.731689,69.906815 1890.354370,60.372776 1900.586548,52.949783 
	C1908.070312,47.520622 1916.503906,44.416122 1925.640991,42.969536 
	C1942.153320,40.355301 1957.836304,43.304195 1973.088501,49.568993 
	C1973.683960,49.813580 1974.357178,49.940022 1975.002319,49.976418 
	C1976.149414,50.041119 1977.302856,49.994579 1978.203979,49.994579 
	C1982.211426,40.829372 1990.135132,37.997139 1998.651001,37.142815 
	C2009.189575,36.085579 2018.642090,39.273140 2026.487915,46.799889 
	C2027.538574,47.807735 2029.875366,48.283539 2031.348511,47.919849 
	C2050.507568,43.189648 2070.017822,44.226810 2089.473389,43.926701 
	C2105.528320,43.679054 2121.237549,45.901428 2136.934082,48.862240 
	C2142.878906,49.983624 2148.975342,50.327965 2155.011719,50.934490 
	C2162.368164,51.673622 2169.736816,52.284756 2177.094971,53.006351 
	C2192.289795,54.496426 2206.511475,49.478500 2221.073486,46.617191 
	C2227.635254,45.327873 2234.334229,44.443859 2241.008789,44.087849 
	C2253.089111,43.443508 2265.211670,42.808590 2277.292236,43.117229 
	C2297.677734,43.638050 2317.541504,47.112320 2335.928955,56.584408 
	C2339.537354,58.443211 2342.960693,60.660927 2346.944092,62.990677 
	C2347.561768,60.055458 2347.899170,57.361519 2348.705566,54.816261 
	C2351.643311,45.544182 2358.994385,41.414612 2367.798340,40.135105 
	C2380.308838,38.316917 2391.416504,42.635895 2399.757324,51.710148 
	C2404.047607,56.377769 2406.457520,63.029736 2408.855957,69.123909 
	C2413.170654,80.086624 2417.167725,91.201851 2420.657715,102.451942 
	C2423.005371,110.019142 2424.359375,117.905624 2425.969482,125.688232 
	C2429.033936,140.500931 2432.281738,155.287048 2434.834717,170.190201 
	C2436.464844,179.706161 2436.950439,189.416199 2438.030029,199.030151 
	C2438.244385,200.937775 2438.826660,202.804123 2439.200928,204.515213 
	C2454.386230,203.531494 2469.310303,202.564713 2484.516602,201.579636 
	C2482.370605,195.725128 2479.587891,189.852692 2478.104736,183.668655 
	C2476.089600,175.266541 2472.298828,166.853333 2475.076904,157.945297 
	C2478.185791,147.976395 2486.181641,143.237793 2495.699463,142.191162 
	C2508.917725,140.737534 2520.413574,145.808456 2528.769775,156.010452 
	C2532.060791,160.028412 2533.133057,165.943420 2534.909424,171.100067 
	C2536.764160,176.483353 2538.250977,181.993500 2540.253174,188.622238 
	C2543.550537,168.206757 2546.269775,149.149185 2549.782715,130.239014 
	C2553.384277,110.850029 2557.437744,91.517929 2565.000244,73.156158 
	C2569.614014,61.954338 2575.345947,51.658451 2586.994629,46.200741 
	C2588.536133,45.478546 2590.067871,44.431702 2591.689697,44.232544 
	C2608.584961,42.158108 2623.333740,46.034855 2636.193604,58.108864 
	C2654.377686,75.181801 2668.181885,95.405983 2681.137939,116.399139 
	C2683.452637,120.149498 2686.086182,123.702911 2689.297852,128.410431 
	C2688.366455,108.229622 2688.988281,89.875191 2699.831299,73.669205 
	C2706.695801,63.408859 2715.284424,55.234451 2726.619873,49.472698 
	C2739.634521,42.857544 2753.195801,40.319851 2767.359863,41.151550 
	C2780.034668,41.895824 2792.597900,44.014774 2804.501221,48.990181 
	C2806.179199,49.691601 2809.217041,49.929958 2810.245850,48.943581 
	C2817.203857,42.272724 2825.331299,40.447495 2834.519531,42.005310 
	C2847.771240,44.252033 2858.093262,50.674778 2863.967773,63.130222 
	C2865.047852,65.420273 2866.082031,68.146210 2865.871094,70.560257 
	C2864.871582,81.999908 2870.986328,90.735229 2876.391602,99.758636 
	C2877.458496,101.540070 2879.034912,103.016312 2881.204102,105.631004 
	C2881.552246,102.882027 2881.965332,101.114075 2881.968506,99.345383 
	C2881.987061,89.146683 2882.981934,79.174973 2886.753906,69.525574 
	C2892.220459,55.541557 2902.668213,47.714668 2916.763672,43.998283 
	C2934.134766,39.418327 2950.811768,43.185486 2967.391113,48.142418 
	C2970.036133,48.933254 2972.631104,49.891132 2975.253906,50.773438 
	C2977.745361,42.509476 2985.105713,37.343304 2994.412598,36.979149 
	C3008.349121,36.433849 3019.869141,41.857758 3028.473145,52.325729 
	C3032.398193,57.101780 3034.041016,63.730980 3036.840088,69.460442 
	C3041.312256,78.614044 3045.872314,87.724930 3050.420654,96.841057 
	C3053.622314,103.257965 3056.337646,110.090652 3052.506104,116.803726 
	C3048.427979,123.949142 3042.006104,128.029037 3033.176758,128.096436 
	C3022.876953,128.175064 3014.407715,124.176956 3005.998047,118.693420 
	C2989.665039,108.043480 2972.945801,97.942558 2953.954834,92.549164 
	C2951.324951,91.802208 2948.352295,91.913681 2945.589600,92.173309 
	C2944.646973,92.261894 2943.233887,93.953629 2943.110352,95.035324 
	C2942.487793,100.500626 2942.468994,106.040085 2941.732422,111.485146 
	C2941.294189,114.727417 2942.721436,115.029526 2945.206055,115.018867 
	C2955.871338,114.973114 2966.547852,115.309738 2977.199219,114.923935 
	C2991.553955,114.403969 3008.055420,126.006882 3011.756104,141.973587 
	C3014.648926,154.453674 3006.782715,163.689377 2991.989014,165.133484 
	C2982.129395,166.095963 2972.309570,167.962555 2962.645508,170.180954 
	C2958.840332,171.054413 2955.113281,173.537033 2952.122803,176.165497 
	C2950.583008,177.519073 2949.489746,181.411179 2950.323486,183.114059 
	C2956.997314,196.745270 2967.996582,204.922867 2982.956543,208.067795 
	C2992.781250,210.133270 3002.391113,209.057007 3011.471191,205.775360 
	C3019.574951,202.846466 3025.141357,196.499390 3028.037354,188.042526 
	C3031.141846,178.977997 3030.025879,170.064224 3028.183838,160.952011 
	C3025.531250,147.828476 3032.292236,138.604370 3045.692139,137.193512 
	C3061.691650,135.508972 3075.275879,141.581207 3084.074951,155.134048 
	C3087.615479,160.587311 3088.106934,168.017029 3090.005615,174.541595 
	C3090.510986,176.277618 3091.089111,177.992462 3091.816895,179.358505 
	C3092.000000,185.687637 3092.000000,192.375290 3092.000000,199.531464 
M2749.000244,125.437988 
	C2749.518066,129.996353 2749.746094,134.610260 2750.607178,139.102814 
	C2753.331299,153.317230 2759.297607,166.248871 2767.131836,178.302338 
	C2774.094971,189.016144 2783.271484,197.597565 2794.472656,203.705734 
	C2805.111084,209.507050 2816.673096,209.362350 2827.994385,206.447220 
	C2837.486572,204.003036 2843.609619,197.562317 2844.975586,187.479385 
	C2845.569336,183.096375 2845.783691,178.651901 2845.976318,174.226883 
	C2846.307129,166.627335 2850.166504,161.388138 2857.391357,158.902725 
	C2868.209961,155.181183 2878.603027,156.214172 2887.926270,161.316971 
	C2890.010986,156.632477 2892.122559,152.003723 2894.122803,147.327332 
	C2894.792969,145.760056 2896.113281,143.553421 2895.542236,142.521713 
	C2891.874512,135.896881 2887.764160,129.517349 2884.161377,123.647415 
	C2882.676270,128.067993 2879.977295,132.328018 2874.603516,135.239746 
	C2867.494629,139.091705 2860.068848,138.404282 2852.853516,137.612778 
	C2848.287109,137.111862 2843.361328,134.826599 2839.732910,131.922333 
	C2832.833740,126.400200 2826.553223,120.050858 2820.372314,113.698242 
	C2811.121826,104.190750 2800.143066,97.357086 2787.652100,93.509636 
	C2779.395508,90.966385 2770.230957,89.607506 2762.520508,95.184822 
	C2752.735107,102.263191 2749.188232,112.738518 2749.000244,125.437988 
M1443.007324,136.591110 
	C1438.345337,148.210190 1433.683350,159.829285 1429.117920,171.207794 
	C1445.662354,172.377151 1462.038452,173.534622 1479.091919,174.739960 
	C1471.232056,153.969421 1463.441895,133.383041 1455.222412,111.662384 
	C1453.322144,115.029663 1452.036621,117.069923 1450.981812,119.223175 
	C1448.288086,124.721817 1445.697266,130.270767 1443.007324,136.591110 
M2639.138916,148.277939 
	C2631.919922,136.432388 2624.700684,124.586845 2617.481445,112.741302 
	C2616.830811,112.892151 2616.179932,113.042999 2615.529297,113.193848 
	C2611.744873,132.681946 2607.960449,152.170044 2604.260742,171.221588 
	C2620.945312,172.339493 2637.409668,173.442657 2655.040039,174.623947 
	C2649.571289,165.547073 2644.558105,157.225861 2639.138916,148.277939 
M2283.009033,126.245178 
	C2284.933594,131.472061 2286.857910,136.698944 2288.906982,142.264236 
	C2300.594727,139.358917 2309.883057,133.204636 2315.673340,122.582649 
	C2318.971436,116.533073 2316.915039,106.115089 2312.336182,103.088211 
	C2301.632324,96.012413 2289.444092,95.681396 2276.504883,94.848946 
	C2277.292480,99.826340 2277.752441,104.027786 2278.656250,108.131493 
	C2279.932617,113.926239 2281.537109,119.648659 2283.009033,126.245178 
M1607.363159,95.008461 
	C1603.440430,94.217476 1599.517578,93.426491 1594.428711,92.400368 
	C1593.364624,108.126389 1592.363037,122.927856 1591.316406,138.395645 
	C1595.350952,137.347702 1598.004028,136.671967 1600.650024,135.969055 
	C1612.246826,132.888260 1622.247925,127.747711 1627.090576,115.779678 
	C1629.164551,110.653709 1628.589355,105.698936 1624.165283,102.908577 
	C1619.178467,99.763206 1613.548584,97.637383 1607.363159,95.008461 
M1511.550781,92.123047 
	C1510.485352,91.910400 1509.419922,91.697746 1508.451050,91.504379 
	C1516.496582,111.718910 1524.528809,131.900299 1532.449951,151.802353 
	C1533.247681,132.698868 1534.050537,113.469986 1534.854126,94.224228 
	C1527.388550,95.869881 1519.690918,95.299408 1511.550781,92.123047 
M1695.000122,157.194611 
	C1693.273438,139.907150 1692.373901,122.629158 1696.759888,105.514931 
	C1692.527954,104.654579 1689.439819,104.026756 1687.331909,103.598228 
	C1686.787354,111.362373 1687.141357,119.219742 1685.465698,126.617371 
	C1683.750732,134.188599 1680.046753,141.309296 1677.383545,148.188080 
	C1684.168579,156.584366 1690.776001,164.760834 1697.579956,173.180466 
	C1696.716919,168.014389 1695.890381,163.066589 1695.000122,157.194611 
M1698.161255,173.000458 
	C1698.107910,173.440231 1698.054565,173.879990 1698.001221,174.319809 
	C1698.266846,174.014450 1698.532471,173.709091 1698.161255,173.000458 
z"/>
<path fill="#FF6B35" opacity="1.000000" stroke="none" 
	d="
M1.000001,171.464645 
	C1.756295,170.446213 2.677894,170.024323 3.242124,169.317276 
	C6.979831,164.633377 10.989210,160.110367 14.196241,155.079865 
	C16.120762,152.061081 17.092705,148.295807 17.901289,144.731857 
	C20.022144,135.383911 21.716354,125.939903 23.771694,116.576126 
	C26.069941,106.105713 28.127542,95.550377 31.115683,85.272079 
	C34.449837,73.803604 37.618576,61.955780 47.039097,53.575535 
	C53.218029,48.078911 60.399609,44.233143 68.993744,44.013706 
	C72.513336,43.923836 76.065567,44.287571 79.553711,43.944420 
	C90.200134,42.897076 100.057869,56.643978 95.752686,67.832489 
	C91.644562,78.508865 88.114525,89.457916 85.144249,100.505913 
	C82.791153,109.258278 81.635246,118.335541 80.014801,127.280685 
	C79.107826,132.287384 78.337357,137.318802 77.574379,141.922684 
	C101.484001,143.633392 124.713997,145.295486 148.146011,146.972046 
	C149.401001,139.239059 150.831726,131.008362 152.049500,122.746277 
	C153.149261,115.284737 153.631302,107.713501 155.078003,100.326210 
	C157.133148,89.832031 155.632019,78.499908 161.141220,68.868309 
	C167.808655,57.211811 178.288208,50.907600 191.795990,50.019657 
	C198.264511,49.594440 204.319901,50.177372 210.036560,54.251434 
	C214.751129,57.611351 216.852112,62.245693 216.766647,67.064407 
	C216.597397,76.608131 215.040100,86.123680 214.146271,95.659279 
	C213.465149,102.925491 212.922424,110.204674 212.371490,116.835960 
	C217.659592,109.667397 223.206696,102.109955 228.794373,94.582634 
	C235.757767,85.202019 244.770126,78.110641 254.661850,72.156876 
	C259.365540,69.325752 264.673553,67.504829 269.411072,64.721222 
	C271.881744,63.269524 273.854614,60.851215 275.801270,58.647701 
	C284.205292,49.134846 294.496948,43.260098 307.339447,43.062649 
	C327.275726,42.756138 347.206268,43.914207 366.215057,50.290382 
	C379.975494,54.906078 393.162872,61.265598 403.893341,71.511307 
	C406.987946,74.466118 409.493286,78.038071 412.447235,81.538551 
	C417.338287,78.750023 422.514282,75.870628 427.619843,72.871239 
	C435.005737,68.532204 442.494598,64.340492 449.644592,59.637474 
	C454.655334,56.341553 458.998962,52.042759 463.948944,48.640629 
	C474.011444,41.724590 492.171936,40.141071 502.563782,50.216545 
	C507.312531,54.820721 508.320465,68.902870 505.156006,75.348846 
	C499.167908,87.546402 493.461121,99.896446 488.090485,112.378059 
	C484.014008,121.851982 479.982544,131.437881 477.123596,141.319016 
	C473.746002,152.992905 471.200531,164.963058 469.206665,176.956451 
	C468.319244,182.294556 469.417328,188.032578 470.060211,193.537003 
	C470.813507,199.986740 475.332306,204.323395 481.949890,206.073196 
	C496.854279,210.014145 511.895264,210.307922 526.529541,205.776779 
	C536.305115,202.749969 542.210754,194.391220 545.749084,185.240158 
	C551.367493,170.709473 553.772705,155.436661 553.013184,139.789444 
	C552.419617,127.560425 551.754578,115.333549 550.952698,103.116783 
	C550.711548,99.441856 549.611755,95.820206 549.409180,92.146370 
	C548.630981,78.030220 556.786987,66.312477 570.431824,62.044189 
	C580.448181,58.910954 590.093262,58.336975 599.577026,64.732452 
	C606.365417,69.310242 606.844116,75.983910 607.990479,82.731400 
	C608.882568,87.982315 609.693359,93.247047 610.758240,99.859024 
	C613.195374,95.737617 614.806641,92.679138 616.724060,89.826416 
	C626.686462,75.003838 640.298462,64.566139 656.307556,56.993069 
	C668.991455,50.992977 682.146667,45.975903 696.015442,44.322468 
	C707.054016,43.006447 718.398071,43.504448 729.549561,44.161991 
	C736.266052,44.558022 742.863281,46.852962 749.539124,48.167873 
	C750.795410,48.415306 752.473083,48.535698 753.440186,47.913094 
	C759.786682,43.827408 766.870239,42.891502 774.106750,43.070969 
	C780.946411,43.240597 787.735413,45.147743 791.846741,50.704308 
	C795.965515,56.270939 798.576477,63.084583 795.268311,70.212471 
	C790.434814,80.627274 789.074097,91.806587 788.125610,102.957993 
	C786.948669,116.795517 781.525146,127.717484 768.654602,133.612656 
	C760.186768,137.491226 750.680237,137.983826 742.436584,133.807602 
	C734.770569,129.924011 728.128845,123.881493 730.805481,111.716789 
	C733.405090,99.902542 729.402771,93.215149 716.627075,91.074638 
	C700.564270,88.383392 686.092163,92.629913 672.668152,101.644249 
	C668.045166,104.748642 664.232910,108.165245 662.010132,113.280663 
	C660.860229,115.926865 661.118286,118.015022 664.168030,118.977753 
	C670.629944,121.017609 677.024658,123.364105 683.604553,124.917023 
	C698.777588,128.498001 714.239441,130.999298 729.201172,135.277802 
	C738.309753,137.882507 746.769348,142.846207 755.401917,146.996918 
	C762.293884,150.310730 767.063782,156.140213 771.503845,162.095947 
	C773.408325,164.650589 774.375488,167.904007 776.051880,171.437103 
	C779.057068,157.513870 781.905701,144.719604 784.559753,131.885086 
	C786.496521,122.519432 789.013550,113.158791 789.670593,103.684860 
	C790.091370,97.617355 790.475098,91.825485 793.757141,86.809990 
	C801.476318,75.013817 813.019287,70.296890 826.669189,71.105034 
	C838.637573,71.813629 849.169495,83.860870 848.005554,94.334045 
	C847.189087,101.680946 846.658203,109.059601 845.759521,116.775925 
	C845.012268,118.984894 844.401123,120.820686 844.015381,122.702675 
	C841.951416,132.771637 839.943787,142.852158 837.646118,153.041962 
	C837.324097,153.608841 837.272522,154.062439 837.221008,154.516052 
	C837.702271,154.244522 838.183533,153.973007 838.919189,153.477295 
	C842.383423,149.849792 845.593262,146.446472 848.808044,143.037888 
	C848.241333,141.711395 847.577393,140.279572 847.010681,138.810287 
	C844.261902,131.683807 845.519531,124.404724 846.227173,117.148567 
	C849.830566,102.433434 855.945251,88.604965 864.185425,76.134041 
	C876.228821,57.907204 893.169495,46.236607 915.384521,42.930862 
	C932.975891,40.313145 949.407288,43.897175 965.481995,50.998325 
	C972.567383,40.375809 982.958496,36.638214 995.115723,37.044014 
	C1005.430481,37.388313 1013.127930,42.313637 1018.100342,51.370327 
	C1018.622253,52.320904 1018.918762,53.502007 1018.963867,54.590904 
	C1019.355591,64.045677 1019.525085,73.511871 1020.064758,82.957291 
	C1020.305664,87.172218 1020.858704,91.449173 1021.939270,95.520370 
	C1024.538696,105.314018 1018.429443,116.134644 1011.572815,120.875008 
	C1002.410461,127.209335 992.152405,130.912247 981.450378,126.709549 
	C974.823669,124.107224 968.996887,119.054428 963.362061,114.430168 
	C953.130737,106.033661 942.633118,98.138107 930.106812,93.535316 
	C920.470520,89.994438 918.070801,90.800720 912.829468,99.552483 
	C910.042725,104.205650 908.153381,109.396255 905.554993,114.999870 
	C918.498474,114.999870 930.463074,115.452988 942.376221,114.864632 
	C952.989563,114.340462 963.675659,123.840721 964.999268,134.580566 
	C966.280640,144.976898 958.560608,158.325806 948.420349,161.663376 
	C942.788208,163.517136 936.711121,164.131668 930.786438,164.960800 
	C917.057434,166.882126 903.298889,168.574707 891.068176,175.913284 
	C887.205627,178.230850 885.377136,185.910614 887.337769,190.808609 
	C892.178650,202.902145 902.029785,208.091766 914.048157,208.844650 
	C931.536133,209.940155 947.200928,205.080399 959.183167,191.409714 
	C964.665955,185.154297 969.010376,178.251755 971.050049,170.026321 
	C972.124023,165.695236 973.541077,161.442612 974.941101,157.200073 
	C981.909180,136.084412 1007.899353,131.754868 1023.135864,142.152527 
	C1030.906982,147.455658 1033.560791,155.751297 1031.730957,164.281082 
	C1029.311157,175.562073 1026.297119,187.021286 1021.394592,197.390213 
	C1014.572144,211.819748 1004.137329,223.904053 991.623230,234.129135 
	C974.396240,248.205048 954.816162,257.210358 932.901917,259.836029 
	C914.110962,262.087463 894.928223,263.525757 876.568604,256.865601 
	C865.120300,252.712631 854.171021,247.023468 845.759399,237.998734 
	C841.338623,233.255692 838.346252,227.147079 834.913208,221.530182 
	C832.834717,218.129517 831.147156,214.489853 828.608948,210.965454 
	C829.198792,216.216217 829.147156,221.638321 830.495483,226.686539 
	C835.055664,243.759628 818.667297,261.056396 803.842224,260.959473 
	C798.413574,260.924011 792.780823,261.251404 787.606567,259.955048 
	C778.434875,257.657196 773.192810,251.112869 772.023193,241.645035 
	C771.007751,233.425339 770.207397,225.179062 769.359497,217.381866 
	C764.810669,222.796860 760.148621,229.017593 754.799622,234.577393 
	C742.887878,246.958481 727.610474,253.806076 711.348206,257.685547 
	C700.921021,260.173035 689.859863,260.749390 679.076233,260.801605 
	C666.430542,260.862915 654.039185,258.187622 642.701538,252.177521 
	C639.238586,250.341797 636.680603,250.788483 633.543335,252.842422 
	C624.979980,258.448761 615.410217,260.140991 605.963440,256.259216 
	C593.594666,251.176758 588.246460,240.451385 594.737366,224.494354 
	C598.383057,215.531876 601.243591,206.246948 604.373352,197.078445 
	C608.420959,185.220917 620.424866,173.838974 634.521484,174.924088 
	C640.212341,175.362137 645.909058,174.679916 651.267944,177.686981 
	C657.603516,181.242020 659.405640,187.462357 662.135376,193.437119 
	C663.924622,197.353394 666.591064,201.776047 670.113586,203.831100 
	C683.133667,211.427032 697.036682,212.861710 710.882141,205.908569 
	C715.979797,203.348587 719.522278,198.848434 719.850464,192.766632 
	C719.918457,191.507584 718.743225,189.940979 717.739746,188.904694 
	C712.379272,183.369370 704.861694,182.851044 698.031250,181.111740 
	C679.775024,176.462921 661.210632,172.945602 643.122131,167.748352 
	C633.290833,164.923599 623.608093,160.586334 616.601196,152.246780 
	C615.436768,150.860962 613.679565,149.973236 612.168762,148.834579 
	C611.482849,168.784790 607.066406,187.889603 597.636658,205.244858 
	C589.833740,219.605957 579.293579,231.951935 565.382812,241.477539 
	C549.874634,252.097000 532.839417,258.602692 514.624329,260.592773 
	C500.387360,262.148193 485.789093,260.381165 471.350952,260.114868 
	C458.768097,259.882751 447.330719,255.403000 436.563446,249.609940 
	C428.972534,245.525833 422.902222,239.218323 418.348083,231.649994 
	C410.290894,218.259933 407.818512,203.659683 408.060150,187.835663 
	C406.073669,190.425064 403.826172,192.856033 402.143005,195.629501 
	C390.918427,214.124710 375.659729,228.663269 357.330719,239.736710 
	C341.229279,249.464371 323.547729,256.094574 304.944183,258.661926 
	C283.139404,261.671082 261.167908,261.845367 240.624161,251.843857 
	C233.358215,248.306488 225.867126,244.646347 219.717926,239.547806 
	C211.946152,233.103928 205.237793,225.310822 201.919159,215.269943 
	C200.820297,211.945236 199.168976,208.803116 197.458710,204.859100 
	C195.182831,214.392746 193.363098,223.228973 190.914856,231.887512 
	C188.953796,238.823166 186.737289,245.779465 183.704147,252.293579 
	C180.532043,259.106110 174.434372,263.490845 168.104034,267.359924 
	C166.460083,268.364716 164.883255,269.479401 163.637787,270.771790 
	C154.979111,271.000000 145.958206,271.000000 136.829254,270.781708 
	C135.622269,269.416901 134.654556,268.096710 133.403473,267.151611 
	C124.085640,260.112579 123.818703,252.075058 126.480919,243.943924 
	C128.282104,238.442581 130.393127,233.032059 131.956329,227.466003 
	C134.075806,219.919281 135.796295,212.260742 137.703995,204.654190 
	C138.300430,202.275925 138.262527,200.312653 135.123672,200.001816 
	C132.026779,199.695129 128.929626,199.379776 125.842026,198.992737 
	C115.610779,197.710175 105.406235,196.162338 95.147713,195.166962 
	C87.627403,194.437286 80.038422,194.415436 72.156212,194.063644 
	C73.146088,202.989380 73.113701,211.796967 75.248405,220.043594 
	C79.635048,236.989716 70.055908,249.603424 57.174423,257.102844 
	C49.382671,261.639099 41.055382,261.168976 32.720894,260.935944 
	C24.273285,260.699707 19.318695,257.606842 15.942558,248.510345 
	C11.324224,236.066971 11.221728,222.964691 11.131025,209.920837 
	C11.104327,206.081345 13.017309,201.546814 11.549690,198.551788 
	C9.083851,193.519653 4.622060,189.465561 1.000000,185.000000 
	C1.000000,180.643097 1.000000,176.286194 1.000001,171.464645 
M261.964508,158.966003 
	C261.643402,164.380569 260.966583,169.805801 261.128448,175.205887 
	C261.233276,178.704910 261.722412,182.686584 263.493378,185.553955 
	C270.294006,196.565002 280.613525,202.740234 293.486542,202.860229 
	C315.871490,203.068909 334.354645,195.165100 347.111572,175.599808 
	C356.094788,161.822266 362.458832,147.495987 360.955719,130.680176 
	C360.160217,121.780525 356.805878,114.014122 348.939484,109.036896 
	C344.157715,106.011360 339.083649,103.447800 334.591034,100.929077 
	C332.744598,102.195419 331.487457,103.106552 330.183228,103.944260 
	C320.688416,110.042778 310.088013,110.542328 299.291901,109.991699 
	C286.790070,109.354057 279.148071,116.502579 272.975494,126.197632 
	C266.740204,135.991119 264.367615,147.069565 261.964508,158.966003 
z"/>
<path fill="#000000" opacity="1.000000" stroke="none" 
	d="
M1.000000,185.468658 
	C4.622060,189.465561 9.083851,193.519653 11.549690,198.551788 
	C13.017309,201.546814 11.104327,206.081345 11.131025,209.920837 
	C11.221728,222.964691 11.324224,236.066971 15.942558,248.510345 
	C19.318695,257.606842 24.273285,260.699707 32.720894,260.935944 
	C41.055382,261.168976 49.382671,261.639099 57.174423,257.102844 
	C70.055908,249.603424 79.635048,236.989716 75.248405,220.043594 
	C73.113701,211.796967 73.146088,202.989380 72.156212,194.063644 
	C80.038422,194.415436 87.627403,194.437286 95.147713,195.166962 
	C105.406235,196.162338 115.610779,197.710175 125.842026,198.992737 
	C128.929626,199.379776 132.026779,199.695129 135.123672,200.001816 
	C138.262527,200.312653 138.300430,202.275925 137.703995,204.654190 
	C135.796295,212.260742 134.075806,219.919281 131.956329,227.466003 
	C130.393127,233.032059 128.282104,238.442581 126.480919,243.943924 
	C123.818703,252.075058 124.085640,260.112579 133.403473,267.151611 
	C134.654556,268.096710 135.622269,269.416901 136.360596,270.781708 
	C91.089249,271.000000 46.178490,271.000000 1.000000,271.000000 
	C1.000000,242.646332 1.000000,214.291824 1.000000,185.468658 
z"/>
<path fill="#000000" opacity="1.000000" stroke="none" 
	d="
M2749.000000,124.974167 
	C2749.188232,112.738518 2752.735107,102.263191 2762.520508,95.184822 
	C2770.230957,89.607506 2779.395508,90.966385 2787.652100,93.509636 
	C2800.143066,97.357086 2811.121826,104.190750 2820.372314,113.698242 
	C2826.553223,120.050858 2832.833740,126.400200 2839.732910,131.922333 
	C2843.361328,134.826599 2848.287109,137.111862 2852.853516,137.612778 
	C2860.068848,138.404282 2867.494629,139.091705 2874.603516,135.239746 
	C2879.977295,132.328018 2882.676270,128.067993 2884.161377,123.647415 
	C2887.764160,129.517349 2891.874512,135.896881 2895.542236,142.521713 
	C2896.113281,143.553421 2894.792969,145.760056 2894.122803,147.327332 
	C2892.122559,152.003723 2890.010986,156.632477 2887.926270,161.316971 
	C2878.603027,156.214172 2868.209961,155.181183 2857.391357,158.902725 
	C2850.166504,161.388138 2846.307129,166.627335 2845.976318,174.226883 
	C2845.783691,178.651901 2845.569336,183.096375 2844.975586,187.479385 
	C2843.609619,197.562317 2837.486572,204.003036 2827.994385,206.447220 
	C2816.673096,209.362350 2805.111084,209.507050 2794.472656,203.705734 
	C2783.271484,197.597565 2774.094971,189.016144 2767.131836,178.302338 
	C2759.297607,166.248871 2753.331299,153.317230 2750.607178,139.102814 
	C2749.746094,134.610260 2749.518066,129.996353 2749.000000,124.974167 
z"/>
<path fill="#000000" opacity="1.000000" stroke="none" 
	d="
M1443.036255,136.195343 
	C1445.697266,130.270767 1448.288086,124.721817 1450.981812,119.223175 
	C1452.036621,117.069923 1453.322144,115.029663 1455.222412,111.662384 
	C1463.441895,133.383041 1471.232056,153.969421 1479.091919,174.739960 
	C1462.038452,173.534622 1445.662354,172.377151 1429.117920,171.207794 
	C1433.683350,159.829285 1438.345337,148.210190 1443.036255,136.195343 
z"/>
<path fill="#000000" opacity="1.000000" stroke="none" 
	d="
M2639.341797,148.591293 
	C2644.558105,157.225861 2649.571289,165.547073 2655.040039,174.623947 
	C2637.409668,173.442657 2620.945312,172.339493 2604.260742,171.221588 
	C2607.960449,152.170044 2611.744873,132.681946 2615.529297,113.193848 
	C2616.179932,113.042999 2616.830811,112.892151 2617.481445,112.741302 
	C2624.700684,124.586845 2631.919922,136.432388 2639.341797,148.591293 
z"/>
<path fill="#000000" opacity="1.000000" stroke="none" 
	d="
M2283.005371,125.823570 
	C2281.537109,119.648659 2279.932617,113.926239 2278.656250,108.131493 
	C2277.752441,104.027786 2277.292480,99.826340 2276.504883,94.848946 
	C2289.444092,95.681396 2301.632324,96.012413 2312.336182,103.088211 
	C2316.915039,106.115089 2318.971436,116.533073 2315.673340,122.582649 
	C2309.883057,133.204636 2300.594727,139.358917 2288.906982,142.264236 
	C2286.857910,136.698944 2284.933594,131.472061 2283.005371,125.823570 
z"/>
<path fill="#000000" opacity="1.000000" stroke="none" 
	d="
M1607.780762,95.038300 
	C1613.548584,97.637383 1619.178467,99.763206 1624.165283,102.908577 
	C1628.589355,105.698936 1629.164551,110.653709 1627.090576,115.779678 
	C1622.247925,127.747711 1612.246826,132.888260 1600.650024,135.969055 
	C1598.004028,136.671967 1595.350952,137.347702 1591.316406,138.395645 
	C1592.363037,122.927856 1593.364624,108.126389 1594.428711,92.400368 
	C1599.517578,93.426491 1603.440430,94.217476 1607.780762,95.038300 
z"/>
<path fill="#000000" opacity="1.000000" stroke="none" 
	d="
M1511.844116,92.387833 
	C1519.690918,95.299408 1527.388550,95.869881 1534.854126,94.224228 
	C1534.050537,113.469986 1533.247681,132.698868 1532.449951,151.802353 
	C1524.528809,131.900299 1516.496582,111.718910 1508.451050,91.504379 
	C1509.419922,91.697746 1510.485352,91.910400 1511.844116,92.387833 
z"/>
<path fill="#000000" opacity="1.000000" stroke="none" 
	d="
M1695.031982,157.656708 
	C1695.890381,163.066589 1696.716919,168.014389 1697.579956,173.180466 
	C1690.776001,164.760834 1684.168579,156.584366 1677.383545,148.188080 
	C1680.046753,141.309296 1683.750732,134.188599 1685.465698,126.617371 
	C1687.141357,119.219742 1686.787354,111.362373 1687.331909,103.598228 
	C1689.439819,104.026756 1692.527954,104.654579 1696.759888,105.514931 
	C1692.373901,122.629158 1693.273438,139.907150 1695.031982,157.656708 
z"/>
<path fill="#000000" opacity="1.000000" stroke="none" 
	d="
M1372.477417,156.506653 
	C1372.305054,157.339172 1371.946533,157.976868 1371.138306,159.414368 
	C1371.235840,157.771881 1371.282349,156.990128 1371.620605,156.068405 
	C1372.038696,156.056244 1372.164917,156.184036 1372.477417,156.506653 
z"/>
<path fill="#000000" opacity="1.000000" stroke="none" 
	d="
M1698.479614,173.202087 
	C1698.532471,173.709091 1698.266846,174.014450 1698.001221,174.319794 
	C1698.054565,173.879990 1698.107910,173.440231 1698.479614,173.202087 
z"/>
<path fill="#000000" opacity="1.000000" stroke="none" 
	d="
M2749.111816,234.888275 
	C2748.708008,234.510483 2748.498047,233.945801 2748.288086,233.381195 
	C2748.627930,233.548798 2748.967529,233.716354 2749.498535,234.103516 
	C2749.561768,234.449203 2749.433838,234.575302 2749.111816,234.888275 
z"/>
<path fill="#000000" opacity="1.000000" stroke="none" 
	d="
M261.980652,158.567017 
	C264.367615,147.069565 266.740204,135.991119 272.975494,126.197632 
	C279.148071,116.502579 286.790070,109.354057 299.291901,109.991699 
	C310.088013,110.542328 320.688416,110.042778 330.183228,103.944260 
	C331.487457,103.106552 332.744598,102.195419 334.591034,100.929077 
	C339.083649,103.447800 344.157715,106.011360 348.939484,109.036896 
	C356.805878,114.014122 360.160217,121.780525 360.955719,130.680176 
	C362.458832,147.495987 356.094788,161.822266 347.111572,175.599808 
	C334.354645,195.165100 315.871490,203.068909 293.486542,202.860229 
	C280.613525,202.740234 270.294006,196.565002 263.493378,185.553955 
	C261.722412,182.686584 261.233276,178.704910 261.128448,175.205887 
	C260.966583,169.805801 261.643402,164.380569 261.980652,158.567017 
z"/>
<path fill="#000000" opacity="1.000000" stroke="none" 
	d="
M846.267944,117.181252 
	C845.519531,124.404724 844.261902,131.683807 847.010681,138.810287 
	C847.577393,140.279572 848.241333,141.711395 848.808044,143.037888 
	C845.593262,146.446472 842.383423,149.849792 838.733521,153.282837 
	C838.167847,153.184601 838.042236,153.056641 837.916626,152.928680 
	C839.943787,142.852158 841.951416,132.771637 844.015381,122.702675 
	C844.401123,120.820686 845.012268,118.984894 845.956421,117.201569 
	C846.393433,117.275345 846.308777,117.213936 846.267944,117.181252 
z"/>
<path fill="#000000" opacity="1.000000" stroke="none" 
	d="
M838.479126,153.507019 
	C838.183533,153.973007 837.702271,154.244522 837.221008,154.516052 
	C837.272522,154.062439 837.324097,153.608841 837.646118,153.041962 
	C838.042236,153.056641 838.167847,153.184601 838.479126,153.507019 
z"/>
</svg>